<svg id="Layer_1" data-name="Layer 1" xmlns="http://www.w3.org/2000/svg" viewBox="0 0 152.30057 124.42857"><defs><style>.cls-1{fill:#fff;}.cls-2{fill:#03498e;}</style></defs><path class="cls-1" d="M25.57143,0H153a0,0,0,0,1,0,0V99.42857A25.57143,25.57143,0,0,1,127.42857,125H0a0,0,0,0,1,0,0V25.57143A25.57143,25.57143,0,0,1,25.57143,0Z"/><path class="cls-2" d="M112.87219,58.101c-.10556.28879-.21328.57681-.31617.86655-.16254.4577-.3246.91561-.48082,1.37548a.245.245,0,0,1-.27752.193c-.19778-.01007-.39654-.00007-.59488-.0001q-7.95215-.00087-15.90429.00367a.35407.35407,0,0,1-.40051-.28835c-.20569-.62322-.43169-1.23974-.651-1.85844a.58839.58839,0,0,0-.17038-.26762c-.00622.08868-.01757.17735-.01784.266-.00193.622-.00859,1.24422.002,1.86608.00351.20563-.04745.28382-.27033.28329q-4.40882-.0105-8.81769-.001c-.22279.00045-.29428-.06645-.2911-.291.01162-.8203.01623-1.6411-.00175-2.46117-.00576-.26247.08589-.31046.32377-.31021q8.18208.00845,16.36415.00392c.27949,0,.55991.01345.8382-.005a.33307.33307,0,0,1,.39161.26939c.25953.76607.5373,1.52595.80954,2.28768.02023.05659.0511.10938.10483.22242.053-.12213.0898-.19527.11713-.2718.2631-.73673.53169-1.47163.782-2.21269a.35854.35854,0,0,1,.399-.29643q8.54721.01042,17.09443.0051c.39457,0,.39442.00015.395.3998.00106.79339-.003,1.58684.007,2.38012.00266.211-.06707.2805-.28024.2801q-4.3953-.00839-8.79063.0006c-.223.0005-.27345-.081-.27022-.28424.01-.63094.004-1.26213.0042-1.89322q0-.11845,0-.2369Z"/><path class="cls-2" d="M75.58461,48.57454H75.292q-17.11842,0-34.23683.00486c-.2343.00011-.3106-.05447-.30623-.29844q.02232-1.24357-.00046-2.48778c-.0043-.24447.05692-.32054.31271-.31972,2.96572.00953,5.93148.0067,8.89723.00666Q62.10087,45.48,74.2433,45.47355c.26616-.00025.41065.06959.49192.33.25661.82216.53187,1.63848.796,2.45833A2.33685,2.33685,0,0,1,75.58461,48.57454Z"/><path class="cls-2" d="M58.13856,75.45287q8.49318-.00018,16.98635-.00008c.07212,0,.15757-.02341.21289.00725.0641.03552.15341.12924.14321.17982a11.52763,11.52763,0,0,1-.89984,2.73136.4061.4061,0,0,1-.26234.16865,2.15827,2.15827,0,0,1-.43127.00808q-16.40481.00012-32.80961.00568c-.2608.00015-.33423-.07054-.32912-.3303q.0242-1.23021-.00082-2.46114c-.00523-.25751.08029-.31425.32306-.314Q49.60481,75.45743,58.13856,75.45287Z"/><path class="cls-2" d="M72.08758,42.56766H70.61843q-14.7663.00006-29.53261.00511c-.25.00015-.3435-.05151-.33761-.32268.01782-.82.01515-1.64072.00021-2.46081-.00451-.24782.06332-.31925.3163-.31889q7.99164.0112,15.98331.00586c2.07341,0,4.14736-.02971,6.22008.008a14.36572,14.36572,0,0,1,5.78442,1.10137,13.62161,13.62161,0,0,1,2.9096,1.84673A1.65533,1.65533,0,0,1,72.08758,42.56766Z"/><path class="cls-2" d="M72.10954,81.4573a13.36471,13.36471,0,0,1-3.15872,2.00516,11.56217,11.56217,0,0,1-3.77981.92963c-.79792.059-1.59867.11053-2.39822.11149q-10.84655.01308-21.6931.01152c-.2623.00026-.33723-.0706-.33186-.33155q.02475-1.20316.00052-2.40708c-.0059-.27063.08626-.32537.33871-.32521q14.83624.00943,29.67251.006C71.18153,81.45731,71.60347,81.4573,72.10954,81.4573Z"/><path class="cls-2" d="M73.97957,66.53815h-.50629q-13.07441.00025-26.1488.00594c-.24585.00019-.30207-.07579-.29843-.30745.01278-.811.02015-1.62284-.00347-2.43339-.009-.30811.12907-.32362.368-.32344q9.05879.0066,18.11758.00351c1.80275,0,3.60552.005,5.40821-.0053a.79155.79155,0,0,1,.57657.224A22.52861,22.52861,0,0,1,73.97957,66.53815Z"/><path class="cls-2" d="M73.92945,57.52719c-.31684.40068-.568.75059-.85245,1.07091-.5038.56736-1.02649,1.118-1.54421,1.67292a.81728.81728,0,0,1-.64258.27166q-11.77815-.01132-23.5563-.00168c-.23177.00016-.31238-.05457-.308-.29929q.02205-1.24368-.0004-2.488c-.00363-.221.06678-.27.27624-.26988q12.84642.00778,25.69284.00517c.20735,0,.41474-.00293.622.00066C73.69286,57.491,73.76891,57.50728,73.92945,57.52719Z"/><path class="cls-2" d="M26.63971,39.4758c3.534.00027,7.068.004,10.602-.00681.2848-.00087.34469.08279.3388.34974q-.0265,1.203-.0007,2.40681c.00575.26694-.05512.34932-.33863.349q-10.629-.013-21.25807,0c-.285.00036-.34485-.08355-.33913-.35039q.02578-1.203-.00065-2.4068c-.006-.269.05749-.34962.34035-.34878C19.53564,39.47919,23.08768,39.47554,26.63971,39.4758Z"/><path class="cls-2" d="M26.61645,78.54816q-5.31444-.00024-10.62885.00611c-.273.00073-.35216-.06467-.34526-.34341.02052-.8289.01593-1.65872.00379-2.48792-.00318-.21731.06278-.27539.27456-.27427,1.49647.00792,2.993.00421,4.48952.0042q8.3841-.00011,16.76819-.00017c.39383,0,.39486.00026.39516.3952.00062.80235-.00986,1.60489.00579,2.40694.0048.24553-.0748.29875-.307.2983Q31.94441,78.54276,26.61645,78.54816Z"/><path class="cls-2" d="M26.58308,48.57416q-5.31472.00045-10.62944.00514c-.22973.00044-.314-.04666-.30943-.29524.01553-.83817.012-1.67689.001-2.5152-.00284-.21631.04776-.29489.28187-.29468q10.67.00963,21.34006.00011c.25988-.00026.316.08212.31205.323q-.02013,1.23031-.00078,2.46112c.00374.24024-.05276.32223-.31181.32157Q31.92488,48.56638,26.58308,48.57416Z"/><path class="cls-2" d="M37.55908,84.50986h-.40866q-10.60315,0-21.20629.00532c-.2426.00023-.3042-.06958-.30015-.30506.01413-.82025.01225-1.641.00194-2.4613-.0027-.21485.0462-.29736.28141-.29717q10.68428.00856,21.36857.001c.20268-.00012.28621.04351.2828.26918-.01282.84733-.00429,1.695-.00485,2.54251C37.57381,84.335,37.56559,84.40574,37.55908,84.50986Z"/><path class="cls-2" d="M107.68883,48.57332c.174-.49082.33444-.94662.49716-1.4016.16655-.46568.35226-.92542.496-1.398a.36136.36136,0,0,1,.4191-.29877q7.6115.00984,15.223.00518c1.32491,0,2.64988.00606,3.97468-.00571.23814-.00211.28493.08428.28254.29675-.00926.82008-.014,1.64053.0021,2.4604.00526.26754-.06026.34914-.343.34875q-9.86926-.01339-19.73853-.007Z"/><path class="cls-2" d="M99.33635,48.5734h-.32006q-10.10265,0-20.2053-.00007c-.35835,0-.359-.00028-.35923-.35046-.0005-.81146.00648-1.623-.00471-2.43431-.00313-.227.05023-.31375.2986-.31352q9.62928.009,19.25857.00874c.0882.00006.232.05609.25618.121C98.62144,46.57161,98.96668,47.5444,99.33635,48.5734Z"/><path class="cls-2" d="M109.83109,42.54709c.29766-.83747.57409-1.63472.86473-2.42675.23746-.64712.245-.64411.926-.64411q8.30178-.00008,16.60356-.00029c.35137,0,.35183.00016.352.35535.00031.82026-.00571,1.6406.00417,2.46074.00254.2098-.05689.28107-.27508.28087q-9.113-.00852-18.226-.00632C110.01121,42.56657,109.94207,42.55608,109.83109,42.54709Z"/><path class="cls-2" d="M97.19732,42.56736h-.30638q-9.03357.00012-18.06715.00022c-.37137,0-.37188-.00023-.37207-.36661-.00044-.8114.00575-1.62288-.0044-2.43415-.00274-.21935.05926-.29531.28957-.2951q8.57377.00783,17.14754.00911A.33035.33035,0,0,1,96.142,39.63C96.49743,40.58937,96.83663,41.55471,97.19732,42.56736Z"/><path class="cls-2" d="M105.56563,54.56811c.32178-.90809.62973-1.77932.93932-2.64995.15505-.436.15641-.43626.63252-.43628q7.39683-.00033,14.79367-.00015c.36917,0,.369.00056.36888.36683-.00028.82037-.00465,1.64078.0026,2.46108.00167.18717-.03462.27331-.25046.27308q-8.15411-.00849-16.30819-.00548C105.6999,54.57723,105.65583,54.57287,105.56563,54.56811Z"/><path class="cls-2" d="M101.42744,54.57931c-.13656,0-.2603,0-.384,0q-7.97912-.00036-15.95823-.0008c-.35749,0-.35825-.00054-.35843-.35093-.00045-.81143.00854-1.623-.00517-2.43421-.00425-.25129.07781-.317.32406-.31668q7.5328.01,15.06563.00042a.29134.29134,0,0,1,.32943.22911c.31844.91617.64832,1.82837.97284,2.74244A.67066.67066,0,0,1,101.42744,54.57931Z"/><path class="cls-2" d="M86.23441,78.50427q-3.731,0-7.462-.00009c-.36355,0-.36349-.00058-.36321-.36879.00062-.80206.00738-1.6042-.00253-2.40613-.00254-.20476.04236-.2814.26626-.28112q7.55657.00927,15.11315.00039c.21769-.00024.27842.06835.27571.279-.01033.80193-.00492,1.60408-.00487,2.40614,0,.37.00057.37053-.3606.37055Q89.96539,78.50444,86.23441,78.50427Z"/><path class="cls-2" d="M78.41068,84.50836c0-.995-.00268-1.94.00677-2.88493.00056-.05564.0899-.13.15445-.15965a.55181.55181,0,0,1,.21363-.00686q7.44846-.00009,14.89693,0c.37388,0,.37385.00024.374.38657.00033.775-.0125,1.55043.00809,2.32493.00739.27775-.07315.34629-.34537.3458q-6.82661-.01226-13.65326-.00584Z"/><path class="cls-2" d="M120.80806,75.45323c2.47883.00031,4.95769.00522,7.43646-.0064.28408-.00134.34494.08647.33927.353-.01721.81089-.01226,1.62245-.00222,2.43358.00266.2153-.07188.27733-.28174.2771q-7.50406-.00819-15.00811-.00188c-.24056.00024-.3324-.05818-.32747-.31524q.02362-1.23.00285-2.46057c-.00379-.2356.08146-.28424.29633-.28374Q117.03572,75.458,120.80806,75.45323Z"/><path class="cls-2" d="M120.78421,81.45677c2.48791-.0001,4.97583.00351,7.46372-.00552.25675-.00093.34118.064.33569.32952-.01676.81093-.012,1.6225-.0021,2.43365.00267.21943-.057.29263-.28986.29242q-7.53126-.00693-15.06252.0052c-.20007.00027-.26524-.05888-.26288-.26186.00955-.82017.01582-1.64084-.004-2.46065-.00694-.2879.0966-.33911.35818-.33814C115.80837,81.46057,118.29629,81.45686,120.78421,81.45677Z"/><path class="cls-2" d="M110.97028,63.50546c-.254.74674-.49928,1.46817-.74509,2.18942-.01157.034-.02858.066-.04167.09954-.0941.24068-.12436.56706-.3001.69745-.1655.12278-.48424.04509-.73556.04517-3.91206.00139-7.82414-.00238-11.73617.00891a.3819.3819,0,0,1-.43082-.31847c-.27613-.82629-.56911-1.64694-.85533-2.46986-.02579-.07418-.04845-.14946-.08157-.25216Z"/><path class="cls-2" d="M70.84051,72.5431c-1.559,0-3.118-.00614-4.67687.00611-.258.002-.31513-.08049-.311-.32223.0141-.82881.01222-1.65808.002-2.487-.00266-.216.05061-.29833.2832-.2978q4.50117.01029,9.00238.00143c.171-.00025.279.04531.30841.22032q.21855,1.29954.43637,2.5992c.03954.23421-.06966.28507-.28644.284C74.01255,72.53959,72.42652,72.54309,70.84051,72.5431Z"/><path class="cls-2" d="M70.84808,51.48167c1.55949,0,3.119.00566,4.67843-.00561.2565-.00185.3452.07784.30425.324-.13825.831-.27277,1.66265-.41128,2.49362-.03391.20346-.13536.29205-.36691.29134q-4.435-.01363-8.87011-.00064c-.26288.0008-.335-.07248-.33-.33215.01583-.829.01277-1.65865.00041-2.48779-.00337-.22569.06517-.28892.28973-.28761C67.71105,51.486,69.27958,51.48165,70.84808,51.48167Z"/><path class="cls-2" d="M98.12946,69.4638h10.77646c-.13582.39306-.26572.77182-.39759,1.1499-.19848.56905-.40274,1.13614-.59474,1.70735a.27892.27892,0,0,1-.3088.2253q-4.08447-.00776-8.169.00048a.30156.30156,0,0,1-.33416-.23542c-.31188-.90987-.632-1.81693-.94835-2.72525A.99789.99789,0,0,1,98.12946,69.4638Z"/><path class="cls-2" d="M21.92626,51.48229c.12386,0,.21179,0,.29972,0q4.39451-.00064,8.789-.006c.23009-.0006.2892.07455.28636.2939q-.01626,1.2573-.00053,2.51491c.0025.21347-.04435.29916-.28144.29854q-4.408-.0115-8.816-.001c-.20589.00039-.285-.04563-.2821-.26937C21.93322,53.38575,21.92626,52.458,21.92626,51.48229Z"/><path class="cls-2" d="M51.6887,54.57861c-1.46035-.00011-2.92071-.00371-4.381.004-.20721.00109-.28431-.04743-.28113-.27032.01219-.8562.00969-1.71274.00008-2.569-.00219-.19533.04468-.26514.25407-.26471q4.4351.00924,8.87021-.00087c.20989-.00047.25711.0736.25511.2674-.00884.85628-.012,1.71281.00043,2.569.00327.22508-.07763.26961-.28267.26858C54.64546,54.57528,53.16707,54.57871,51.6887,54.57861Z"/><path class="cls-2" d="M21.92662,69.46065c.1251-.00559.21314-.01294.30118-.013q4.35353-.00115,8.70705-.001c.36182,0,.36193-.00041.36186.3671-.00015.82023-.00831,1.64058.00455,2.46061.00348.222-.07269.273-.27957.27261q-4.42111-.00755-8.84224-.00228c-.13141.00005-.25537.01127-.25458-.18386C21.92874,71.40645,21.92662,70.45207,21.92662,69.46065Z"/><path class="cls-2" d="M89.37623,72.54311c-1.46854.00005-2.9371-.00426-4.40559.00459-.22546.00136-.29235-.06611-.289-.29119q.01883-1.27005.00154-2.54053c-.00284-.22.07459-.27376.282-.27335q4.40559.00879,8.81121.00045c.22754-.00051.2879.06858.28479.29068q-.01779,1.27007.00112,2.54052c.00333.22167-.07377.27352-.28049.27253C92.31332,72.53978,90.84477,72.54306,89.37623,72.54311Z"/><path class="cls-2" d="M51.70416,72.54326c-1.45072.00009-2.90148-.0067-4.35208.00623-.26661.00238-.33241-.07978-.32749-.33569.01609-.8377.01333-1.67592.0043-2.5138-.00221-.20549.06789-.25825.26554-.25787q4.39266.00849,8.78532-.00125c.26745-.00082.3313.0846.32675.33821-.01455.81068-.019,1.6222.00314,2.43256.00792.28969-.09115.33945-.3534.33728C54.60563,72.5369,53.15487,72.54317,51.70416,72.54326Z"/><path class="cls-2" d="M117.61411,72.54307c-1.45068.00007-2.90137-.004-4.352.0045-.21668.00126-.2991-.04848-.29578-.28167.01216-.85579.00841-1.71193-.00078-2.56781-.002-.18516.04763-.25387.24143-.25358q4.43308.00654,8.8662-.00085c.184-.0003.23169.07459.23076.24107-.00484.865-.01125,1.73006.00121,2.59485.00329.22813-.08335.268-.285.267C120.5515,72.53989,119.0828,72.543,117.61411,72.54307Z"/><path class="cls-2" d="M26.58939,60.53636c-1.45058,0-2.90119-.00512-4.35169.005-.244.0017-.32322-.05959-.31792-.31524.01717-.82854.01146-1.65772.00212-2.48652-.00227-.20063.06066-.26341.26233-.26306q4.43279.00764,8.86559,0c.18619-.00027.25164.05873.24986.24912-.00793.84684-.00989,1.6939.002,2.54065.00306.21852-.07045.27578-.27947.27476-1.47757-.0072-2.95518-.00382-4.43278-.00382Z"/><path class="cls-2" d="M26.60143,66.53863c-1.45926-.00013-2.91856-.00561-4.37774.00529-.24227.00181-.30717-.072-.3034-.30734.01311-.8195.01141-1.63941.0016-2.459-.00258-.21565.05277-.29991.28476-.2994q4.40478.00983,8.8096.00155c.19741-.00027.28948.0394.28584.26853-.01345.84651-.0117,1.69346-.00054,2.54.00279.21158-.0765.25469-.26831.25388C29.556,66.536,28.07871,66.53876,26.60143,66.53863Z"/><path class="cls-2" d="M89.37045,63.4833c1.45059,0,2.90124.00746,4.35169-.00647.28071-.00269.34738.08387.34163.35292-.01751.81952-.011,1.63969-.00278,2.45951.00186.18433-.04761.25238-.24175.25211q-4.44633-.00628-8.89267.00164c-.18984.0003-.24515-.06842-.24332-.25446.00836-.84684.01157-1.69394-.002-2.54065-.00363-.227.0839-.26965.28337-.26888,1.46858.00569,2.9372.00307,4.4058.00307Z"/><path class="cls-2" d="M112.96907,66.52529c0-.41253-.00033-.79832.00009-1.18411.00055-.50455.0169-1.00972-.00351-1.51341-.011-.27141.06658-.353.34437-.35084,1.66675.01278,3.33363.00637,5.00047.00636,1.22535,0,2.45075.00577,3.676-.005.24429-.00214.32475.06123.31955.317-.0168.82857-.01129,1.65775-.002,2.48656.00226.2016-.06152.26064-.26334.26023q-4.41934-.00887-8.83873-.00453C113.14022,66.53755,113.07845,66.53125,112.96907,66.52529Z"/><path class="cls-2" d="M106.80856,75.46592c-.1812.52768-.35136,1.02731-.52439,1.526-.15312.44126-.30165.88445-.4712,1.31938a.33242.33242,0,0,1-.23345.18579q-2.06745.01686-4.13506.00137a.2814.2814,0,0,1-.21163-.14541c-.33528-.92975-.65829-1.86392-.983-2.79745a.32644.32644,0,0,1-.001-.08963Z"/><path class="cls-2" d="M133.78975,84.96342a2.88736,2.88736,0,0,1-.06594-5.77433,2.88739,2.88739,0,1,1,.06594,5.77433Zm-.00775-5.375a2.49461,2.49461,0,1,0,2.41819,2.49965A2.39963,2.39963,0,0,0,133.782,79.58842Z"/><path class="cls-2" d="M102.3396,81.47046h2.36891c-.05153.15549-.09626.2956-.14428.43457-.27842.80579-.55378,1.6127-.84257,2.41477a.32241.32241,0,0,1-.21608.17788c-.058.0085-.16986-.08937-.19556-.16183-.32091-.90444-.63067-1.81284-.94215-2.7206A1.16586,1.16586,0,0,1,102.3396,81.47046Z"/><path class="cls-2" d="M134.27119,82.21245l.94749,1.45581c-.29032.06992-.4903.05786-.63984-.23022-.19413-.374-.43879-.72183-.66352-1.07978-.08469-.13488-.65122-.23739-.7508-.12459a.37667.37667,0,0,0-.04647.22586c-.00418.40326-.00194.80658-.00194,1.22548h-.38775V80.47614c.58877,0,1.17362-.03327,1.7528.00967a.73767.73767,0,0,1,.77979.81638.80931.80931,0,0,1-.78608.88722C134.4225,82.198,134.36929,82.20153,134.27119,82.21245Zm-1.13109-1.44323v1.0991c.39234,0,.76127.01559,1.12827-.0044a.51109.51109,0,0,0,.55152-.53635.49124.49124,0,0,0-.5252-.55272C133.919,80.74945,133.54036,80.76922,133.1401,80.76922Z"/></svg>